<?xml version="1.0" standalone="no"?>
<!DOCTYPE svg PUBLIC "-//W3C//DTD SVG 20010904//EN"
 "http://www.w3.org/TR/2001/REC-SVG-20010904/DTD/svg10.dtd">
<svg version="1.0" xmlns="http://www.w3.org/2000/svg"
 width="444.000000pt" height="280.000000pt" viewBox="0 0 444.000000 280.000000"
 preserveAspectRatio="xMidYMid meet">

<g transform="translate(0.000000,280.000000) scale(0.100000,-0.100000)"
fill="#000000" stroke="none">
<path d="M2514 2680 c-86 -43 -86 -44 -359 -720 -591 -1461 -645 -1601 -645
-1669 0 -44 32 -103 75 -139 86 -70 198 -67 277 6 45 43 33 13 503 1177 429
1062 458 1142 442 1206 -11 43 -65 107 -108 130 -62 31 -135 35 -185 9z"/>
<path d="M1050 2373 c-20 -10 -232 -214 -481 -463 -357 -355 -449 -453 -459
-484 -18 -55 -6 -130 27 -180 32 -47 793 -812 866 -871 41 -33 58 -39 107 -43
138 -10 229 73 230 209 0 45 -6 64 -31 105 -17 27 -180 199 -362 381 l-331
333 347 349 c222 223 353 362 362 385 21 50 19 129 -4 174 -53 103 -176 150
-271 105z"/>
<path d="M3115 2375 c-57 -20 -121 -93 -134 -153 -11 -53 -2 -108 24 -148 9
-14 167 -178 351 -365 184 -186 334 -344 334 -350 0 -6 -153 -166 -340 -355
-187 -190 -347 -358 -356 -375 -41 -80 -5 -208 74 -263 54 -38 150 -48 203
-21 53 27 915 892 934 937 19 47 19 108 0 155 -22 51 -886 916 -937 938 -46
18 -100 19 -153 0z"/>
</g>
</svg>
